<mxfile host="app.diagrams.net" agent="Mozilla/5.0 (Windows NT 10.0; Win64; x64) AppleWebKit/537.36 (KHTML, like Gecko) Chrome/133.0.0.0 Safari/537.36" version="26.0.11">
  <diagram name="Pagina-1" id="q0b-nvEOeSE0MrDCaNyJ">
    <mxGraphModel dx="1050" dy="522" grid="1" gridSize="10" guides="1" tooltips="1" connect="1" arrows="1" fold="1" page="1" pageScale="1" pageWidth="827" pageHeight="1169" math="0" shadow="0">
      <root>
        <mxCell id="0" />
        <mxCell id="1" parent="0" />
        <mxCell id="wl5v8rk3XCTLOUOSzNsj-11" value="" style="edgeStyle=orthogonalEdgeStyle;rounded=0;orthogonalLoop=1;jettySize=auto;html=1;" edge="1" parent="1" source="wl5v8rk3XCTLOUOSzNsj-1" target="wl5v8rk3XCTLOUOSzNsj-10">
          <mxGeometry relative="1" as="geometry" />
        </mxCell>
        <mxCell id="wl5v8rk3XCTLOUOSzNsj-1" value="START" style="ellipse;whiteSpace=wrap;html=1;" vertex="1" parent="1">
          <mxGeometry x="354" y="20" width="120" height="80" as="geometry" />
        </mxCell>
        <mxCell id="wl5v8rk3XCTLOUOSzNsj-13" value="" style="edgeStyle=orthogonalEdgeStyle;rounded=0;orthogonalLoop=1;jettySize=auto;html=1;" edge="1" parent="1" source="wl5v8rk3XCTLOUOSzNsj-10" target="wl5v8rk3XCTLOUOSzNsj-12">
          <mxGeometry relative="1" as="geometry" />
        </mxCell>
        <mxCell id="wl5v8rk3XCTLOUOSzNsj-10" value="READ N" style="shape=parallelogram;perimeter=parallelogramPerimeter;whiteSpace=wrap;html=1;fixedSize=1;" vertex="1" parent="1">
          <mxGeometry x="354" y="150" width="120" height="60" as="geometry" />
        </mxCell>
        <mxCell id="wl5v8rk3XCTLOUOSzNsj-15" value="" style="edgeStyle=orthogonalEdgeStyle;rounded=0;orthogonalLoop=1;jettySize=auto;html=1;" edge="1" parent="1" source="wl5v8rk3XCTLOUOSzNsj-12" target="wl5v8rk3XCTLOUOSzNsj-14">
          <mxGeometry relative="1" as="geometry" />
        </mxCell>
        <mxCell id="wl5v8rk3XCTLOUOSzNsj-24" value="TRUE" style="edgeLabel;html=1;align=center;verticalAlign=middle;resizable=0;points=[];" vertex="1" connectable="0" parent="wl5v8rk3XCTLOUOSzNsj-15">
          <mxGeometry x="-0.1771" relative="1" as="geometry">
            <mxPoint as="offset" />
          </mxGeometry>
        </mxCell>
        <mxCell id="wl5v8rk3XCTLOUOSzNsj-22" value="" style="edgeStyle=orthogonalEdgeStyle;rounded=0;orthogonalLoop=1;jettySize=auto;html=1;" edge="1" parent="1" source="wl5v8rk3XCTLOUOSzNsj-12" target="wl5v8rk3XCTLOUOSzNsj-20">
          <mxGeometry relative="1" as="geometry" />
        </mxCell>
        <mxCell id="wl5v8rk3XCTLOUOSzNsj-27" value="FALSE" style="edgeLabel;html=1;align=center;verticalAlign=middle;resizable=0;points=[];" vertex="1" connectable="0" parent="wl5v8rk3XCTLOUOSzNsj-22">
          <mxGeometry x="-0.304" y="2" relative="1" as="geometry">
            <mxPoint as="offset" />
          </mxGeometry>
        </mxCell>
        <mxCell id="wl5v8rk3XCTLOUOSzNsj-12" value="N == 1" style="rhombus;whiteSpace=wrap;html=1;" vertex="1" parent="1">
          <mxGeometry x="374" y="280" width="80" height="80" as="geometry" />
        </mxCell>
        <mxCell id="wl5v8rk3XCTLOUOSzNsj-34" style="edgeStyle=orthogonalEdgeStyle;rounded=0;orthogonalLoop=1;jettySize=auto;html=1;exitX=1;exitY=0.5;exitDx=0;exitDy=0;entryX=1;entryY=0.5;entryDx=0;entryDy=0;" edge="1" parent="1" source="wl5v8rk3XCTLOUOSzNsj-14" target="wl5v8rk3XCTLOUOSzNsj-31">
          <mxGeometry relative="1" as="geometry" />
        </mxCell>
        <mxCell id="wl5v8rk3XCTLOUOSzNsj-14" value="WRITE &quot;1ST&quot;" style="shape=parallelogram;perimeter=parallelogramPerimeter;whiteSpace=wrap;html=1;fixedSize=1;" vertex="1" parent="1">
          <mxGeometry x="514" y="290" width="120" height="60" as="geometry" />
        </mxCell>
        <mxCell id="wl5v8rk3XCTLOUOSzNsj-16" value="" style="edgeStyle=orthogonalEdgeStyle;rounded=0;orthogonalLoop=1;jettySize=auto;html=1;" edge="1" parent="1" source="wl5v8rk3XCTLOUOSzNsj-17" target="wl5v8rk3XCTLOUOSzNsj-18">
          <mxGeometry relative="1" as="geometry" />
        </mxCell>
        <mxCell id="wl5v8rk3XCTLOUOSzNsj-26" value="TRUE" style="edgeLabel;html=1;align=center;verticalAlign=middle;resizable=0;points=[];" vertex="1" connectable="0" parent="wl5v8rk3XCTLOUOSzNsj-16">
          <mxGeometry x="-0.1486" y="2" relative="1" as="geometry">
            <mxPoint as="offset" />
          </mxGeometry>
        </mxCell>
        <mxCell id="wl5v8rk3XCTLOUOSzNsj-30" value="" style="edgeStyle=orthogonalEdgeStyle;rounded=0;orthogonalLoop=1;jettySize=auto;html=1;" edge="1" parent="1" source="wl5v8rk3XCTLOUOSzNsj-17" target="wl5v8rk3XCTLOUOSzNsj-29">
          <mxGeometry relative="1" as="geometry" />
        </mxCell>
        <mxCell id="wl5v8rk3XCTLOUOSzNsj-17" value="N == 3" style="rhombus;whiteSpace=wrap;html=1;direction=south;" vertex="1" parent="1">
          <mxGeometry x="374" y="530" width="80" height="80" as="geometry" />
        </mxCell>
        <mxCell id="wl5v8rk3XCTLOUOSzNsj-33" style="edgeStyle=orthogonalEdgeStyle;rounded=0;orthogonalLoop=1;jettySize=auto;html=1;exitX=1;exitY=0.5;exitDx=0;exitDy=0;entryX=0;entryY=0.5;entryDx=0;entryDy=0;" edge="1" parent="1" source="wl5v8rk3XCTLOUOSzNsj-18" target="wl5v8rk3XCTLOUOSzNsj-31">
          <mxGeometry relative="1" as="geometry" />
        </mxCell>
        <mxCell id="wl5v8rk3XCTLOUOSzNsj-18" value="WRITE &quot;3RD&quot;" style="shape=parallelogram;perimeter=parallelogramPerimeter;whiteSpace=wrap;html=1;fixedSize=1;" vertex="1" parent="1">
          <mxGeometry x="514" y="540" width="120" height="60" as="geometry" />
        </mxCell>
        <mxCell id="wl5v8rk3XCTLOUOSzNsj-19" value="" style="edgeStyle=orthogonalEdgeStyle;rounded=0;orthogonalLoop=1;jettySize=auto;html=1;" edge="1" parent="1" source="wl5v8rk3XCTLOUOSzNsj-20" target="wl5v8rk3XCTLOUOSzNsj-21">
          <mxGeometry relative="1" as="geometry" />
        </mxCell>
        <mxCell id="wl5v8rk3XCTLOUOSzNsj-25" value="TRUE" style="edgeLabel;html=1;align=center;verticalAlign=middle;resizable=0;points=[];" vertex="1" connectable="0" parent="wl5v8rk3XCTLOUOSzNsj-19">
          <mxGeometry x="-0.1771" y="3" relative="1" as="geometry">
            <mxPoint as="offset" />
          </mxGeometry>
        </mxCell>
        <mxCell id="wl5v8rk3XCTLOUOSzNsj-23" value="" style="edgeStyle=orthogonalEdgeStyle;rounded=0;orthogonalLoop=1;jettySize=auto;html=1;" edge="1" parent="1" source="wl5v8rk3XCTLOUOSzNsj-20" target="wl5v8rk3XCTLOUOSzNsj-17">
          <mxGeometry relative="1" as="geometry" />
        </mxCell>
        <mxCell id="wl5v8rk3XCTLOUOSzNsj-28" value="FALSE" style="edgeLabel;html=1;align=center;verticalAlign=middle;resizable=0;points=[];" vertex="1" connectable="0" parent="wl5v8rk3XCTLOUOSzNsj-23">
          <mxGeometry x="-0.43" relative="1" as="geometry">
            <mxPoint as="offset" />
          </mxGeometry>
        </mxCell>
        <mxCell id="wl5v8rk3XCTLOUOSzNsj-20" value="N == 2" style="rhombus;whiteSpace=wrap;html=1;" vertex="1" parent="1">
          <mxGeometry x="374" y="410" width="80" height="80" as="geometry" />
        </mxCell>
        <mxCell id="wl5v8rk3XCTLOUOSzNsj-32" style="edgeStyle=orthogonalEdgeStyle;rounded=0;orthogonalLoop=1;jettySize=auto;html=1;exitX=1;exitY=0.5;exitDx=0;exitDy=0;entryX=0.5;entryY=0;entryDx=0;entryDy=0;" edge="1" parent="1" source="wl5v8rk3XCTLOUOSzNsj-21" target="wl5v8rk3XCTLOUOSzNsj-31">
          <mxGeometry relative="1" as="geometry" />
        </mxCell>
        <mxCell id="wl5v8rk3XCTLOUOSzNsj-21" value="WRITE &quot;2ND&quot;" style="shape=parallelogram;perimeter=parallelogramPerimeter;whiteSpace=wrap;html=1;fixedSize=1;" vertex="1" parent="1">
          <mxGeometry x="514" y="420" width="120" height="60" as="geometry" />
        </mxCell>
        <mxCell id="wl5v8rk3XCTLOUOSzNsj-35" style="edgeStyle=orthogonalEdgeStyle;rounded=0;orthogonalLoop=1;jettySize=auto;html=1;exitX=1;exitY=0.5;exitDx=0;exitDy=0;entryX=0;entryY=1;entryDx=0;entryDy=0;" edge="1" parent="1" source="wl5v8rk3XCTLOUOSzNsj-29" target="wl5v8rk3XCTLOUOSzNsj-31">
          <mxGeometry relative="1" as="geometry" />
        </mxCell>
        <mxCell id="wl5v8rk3XCTLOUOSzNsj-29" value="WRITE N &quot;TH&quot;" style="shape=parallelogram;perimeter=parallelogramPerimeter;whiteSpace=wrap;html=1;fixedSize=1;" vertex="1" parent="1">
          <mxGeometry x="354" y="700" width="120" height="60" as="geometry" />
        </mxCell>
        <mxCell id="wl5v8rk3XCTLOUOSzNsj-37" value="" style="edgeStyle=orthogonalEdgeStyle;rounded=0;orthogonalLoop=1;jettySize=auto;html=1;" edge="1" parent="1" source="wl5v8rk3XCTLOUOSzNsj-31" target="wl5v8rk3XCTLOUOSzNsj-36">
          <mxGeometry relative="1" as="geometry" />
        </mxCell>
        <mxCell id="wl5v8rk3XCTLOUOSzNsj-31" value="" style="ellipse;whiteSpace=wrap;html=1;aspect=fixed;" vertex="1" parent="1">
          <mxGeometry x="760" y="700" width="30" height="30" as="geometry" />
        </mxCell>
        <mxCell id="wl5v8rk3XCTLOUOSzNsj-36" value="END" style="ellipse;whiteSpace=wrap;html=1;" vertex="1" parent="1">
          <mxGeometry x="715" y="790" width="120" height="80" as="geometry" />
        </mxCell>
      </root>
    </mxGraphModel>
  </diagram>
</mxfile>
